<?xml version="1.0" encoding="UTF-8"?>
<!--Generator: Apple Native CoreSVG 175.5-->
<!DOCTYPE svg
PUBLIC "-//W3C//DTD SVG 1.1//EN"
       "http://www.w3.org/Graphics/SVG/1.1/DTD/svg11.dtd">
<svg version="1.1" xmlns="http://www.w3.org/2000/svg" xmlns:xlink="http://www.w3.org/1999/xlink" width="22.4883" height="20.918">
 <g>
  <rect height="20.918" opacity="0" width="22.4883" x="0" y="0"/>
  <path d="M4.20071 4.08691C2.56008 4.92676 1.1343 6.02051 0.0991432 7.26074C-0.0375756 7.42676-0.0375756 7.6416 0.12844 7.81738L1.48586 9.16504C1.67141 9.35059 1.94485 9.35059 2.13039 9.15527C3.36086 7.85645 4.75735 6.87012 6.34914 6.23535ZM10.8218 5.31738C10.9683 5.28809 11.1245 5.27832 11.271 5.27832C14.9234 5.33691 17.9702 6.7334 20.3726 9.18457C20.5581 9.36035 20.8218 9.35059 21.0073 9.16504L22.355 7.81738C22.5308 7.6416 22.521 7.42676 22.3941 7.26074C20.0405 4.46777 15.773 2.34863 11.2417 2.34863C10.2554 2.34863 9.27883 2.44629 8.17532 2.6709ZM8.55617 8.42285C6.65188 8.94043 5.03078 9.96582 3.98586 11.2061C3.84914 11.3818 3.85891 11.5869 4.02492 11.7529L5.5386 13.2568C5.74367 13.4521 6.00735 13.4326 6.20266 13.2178C7.36477 11.9287 9.21047 11.0303 11.1245 11.001ZM17.8628 12.3584L18.4683 11.7529C18.6441 11.5771 18.6441 11.3818 18.5073 11.2061C17.521 9.98535 15.8023 8.90137 13.9468 8.44238ZM11.2515 13.7549C9.855 13.7549 8.6343 14.4971 8.0093 15.3467C7.91164 15.5029 7.95071 15.6787 8.09719 15.8252L10.4702 18.1104C10.8511 18.4814 11.0366 18.5791 11.2515 18.5791C11.4663 18.5791 11.6519 18.4717 12.0425 18.1104L14.4058 15.8252C14.562 15.6787 14.6011 15.4639 14.4644 15.2881C13.8198 14.4678 12.6284 13.7549 11.2515 13.7549Z" fill="#ff453a"/>
  <path d="M19.4741 17.71C19.7671 18.0029 20.2554 18.0029 20.5386 17.71C20.8218 17.4072 20.8316 16.9385 20.5386 16.6455L4.12258 0.219727C3.82961-0.0732422 3.34133-0.0732422 3.04836 0.219727C2.75539 0.50293 2.75539 1.01074 3.04836 1.28418Z" fill="#ff453a"/>
 </g>
</svg>
