<?xml version="1.0" encoding="UTF-8"?>
<svg xmlns="http://www.w3.org/2000/svg" xmlns:xlink="http://www.w3.org/1999/xlink" width="20px" height="20px" viewBox="0 0 20 20" version="1.1">
<defs>
<radialGradient id="radial0" gradientUnits="userSpaceOnUse" cx="158.429" cy="578.088" fx="158.429" fy="578.088" r="65" gradientTransform="matrix(0,-0.3003,0.279379,0,-156.120909,68.94)">
<stop offset="0" style="stop-color:rgb(100%,86.666667%,33.333333%);stop-opacity:1;"/>
<stop offset="0.1" style="stop-color:rgb(100%,86.666667%,33.333333%);stop-opacity:1;"/>
<stop offset="0.5" style="stop-color:rgb(100%,32.941176%,24.313725%);stop-opacity:1;"/>
<stop offset="1" style="stop-color:rgb(78.431373%,21.568627%,67.058824%);stop-opacity:1;"/>
</radialGradient>
<radialGradient id="radial1" gradientUnits="userSpaceOnUse" cx="147.694" cy="473.455" fx="147.694" fy="473.455" r="65" gradientTransform="matrix(0.0263545,0.131624,-0.542697,0.108664,249.901818,-69.317121)">
<stop offset="0" style="stop-color:rgb(21.568627%,44.313725%,78.431373%);stop-opacity:1;"/>
<stop offset="0.128" style="stop-color:rgb(21.568627%,44.313725%,78.431373%);stop-opacity:1;"/>
<stop offset="1" style="stop-color:rgb(40%,0%,100%);stop-opacity:0;"/>
</radialGradient>
</defs>
<g id="surface1">
<path style=" stroke:none;fill-rule:nonzero;fill:url(#radial0);" d="M 10.003906 0.152344 C 5.894531 0.152344 4.691406 0.15625 4.457031 0.175781 C 3.613281 0.246094 3.085938 0.378906 2.515625 0.664062 C 2.074219 0.882812 1.726562 1.136719 1.382812 1.492188 C 0.757812 2.140625 0.378906 2.9375 0.242188 3.886719 C 0.175781 4.347656 0.15625 4.441406 0.152344 6.792969 C 0.152344 7.578125 0.152344 8.609375 0.152344 9.996094 C 0.152344 14.105469 0.15625 15.304688 0.175781 15.539062 C 0.246094 16.359375 0.375 16.878906 0.644531 17.441406 C 1.167969 18.523438 2.164062 19.335938 3.335938 19.640625 C 3.742188 19.742188 4.191406 19.800781 4.765625 19.828125 C 5.011719 19.839844 7.496094 19.847656 9.984375 19.847656 C 12.472656 19.847656 14.960938 19.84375 15.199219 19.832031 C 15.863281 19.800781 16.25 19.75 16.679688 19.636719 C 17.859375 19.332031 18.835938 18.53125 19.367188 17.4375 C 19.636719 16.882812 19.773438 16.347656 19.832031 15.570312 C 19.847656 15.398438 19.851562 12.695312 19.851562 9.992188 C 19.851562 7.289062 19.847656 4.589844 19.832031 4.421875 C 19.769531 3.628906 19.636719 3.097656 19.359375 2.535156 C 19.132812 2.074219 18.882812 1.730469 18.515625 1.378906 C 17.863281 0.757812 17.066406 0.378906 16.117188 0.242188 C 15.65625 0.175781 15.566406 0.15625 13.210938 0.152344 Z M 10.003906 0.152344 "/>
<path style=" stroke:none;fill-rule:nonzero;fill:url(#radial1);" d="M 10.003906 0.152344 C 5.894531 0.152344 4.691406 0.15625 4.457031 0.175781 C 3.613281 0.246094 3.085938 0.378906 2.515625 0.664062 C 2.074219 0.882812 1.726562 1.136719 1.382812 1.492188 C 0.757812 2.140625 0.378906 2.9375 0.242188 3.886719 C 0.175781 4.347656 0.15625 4.441406 0.152344 6.792969 C 0.152344 7.578125 0.152344 8.609375 0.152344 9.996094 C 0.152344 14.105469 0.15625 15.304688 0.175781 15.539062 C 0.246094 16.359375 0.375 16.878906 0.644531 17.441406 C 1.167969 18.523438 2.164062 19.335938 3.335938 19.640625 C 3.742188 19.742188 4.191406 19.800781 4.765625 19.828125 C 5.011719 19.839844 7.496094 19.847656 9.984375 19.847656 C 12.472656 19.847656 14.960938 19.84375 15.199219 19.832031 C 15.863281 19.800781 16.25 19.75 16.679688 19.636719 C 17.859375 19.332031 18.835938 18.53125 19.367188 17.4375 C 19.636719 16.882812 19.773438 16.347656 19.832031 15.570312 C 19.847656 15.398438 19.851562 12.695312 19.851562 9.992188 C 19.851562 7.289062 19.847656 4.589844 19.832031 4.421875 C 19.769531 3.628906 19.636719 3.097656 19.359375 2.535156 C 19.132812 2.074219 18.882812 1.730469 18.515625 1.378906 C 17.863281 0.757812 17.066406 0.378906 16.117188 0.242188 C 15.65625 0.175781 15.566406 0.15625 13.210938 0.152344 Z M 10.003906 0.152344 "/>
<path style=" stroke:none;fill-rule:nonzero;fill:rgb(100%,100%,100%);fill-opacity:1;" d="M 10 2.726562 C 8.027344 2.726562 7.777344 2.734375 7 2.769531 C 6.226562 2.808594 5.699219 2.929688 5.238281 3.109375 C 4.757812 3.292969 4.351562 3.542969 3.949219 3.949219 C 3.542969 4.351562 3.296875 4.757812 3.109375 5.234375 C 2.929688 5.699219 2.804688 6.226562 2.769531 7 C 2.738281 7.777344 2.726562 8.023438 2.726562 10 C 2.726562 11.976562 2.734375 12.222656 2.769531 12.996094 C 2.808594 13.773438 2.929688 14.300781 3.109375 14.761719 C 3.296875 15.242188 3.542969 15.648438 3.949219 16.050781 C 4.351562 16.457031 4.757812 16.707031 5.234375 16.890625 C 5.699219 17.070312 6.226562 17.191406 7 17.230469 C 7.777344 17.265625 8.023438 17.273438 10 17.273438 C 11.976562 17.273438 12.222656 17.265625 12.996094 17.230469 C 13.773438 17.191406 14.300781 17.070312 14.765625 16.890625 C 15.242188 16.707031 15.648438 16.457031 16.050781 16.050781 C 16.457031 15.648438 16.703125 15.242188 16.890625 14.761719 C 17.070312 14.300781 17.191406 13.773438 17.230469 13 C 17.261719 12.222656 17.273438 11.976562 17.273438 10 C 17.273438 8.023438 17.261719 7.777344 17.230469 7 C 17.191406 6.226562 17.070312 5.699219 16.890625 5.234375 C 16.703125 4.757812 16.457031 4.351562 16.050781 3.949219 C 15.648438 3.542969 15.242188 3.292969 14.761719 3.109375 C 14.300781 2.929688 13.769531 2.808594 12.996094 2.769531 C 12.222656 2.734375 11.972656 2.726562 10 2.726562 Z M 9.347656 4.039062 C 9.542969 4.039062 9.757812 4.039062 10 4.039062 C 11.941406 4.039062 12.171875 4.042969 12.9375 4.078125 C 13.648438 4.113281 14.035156 4.230469 14.289062 4.332031 C 14.628906 4.460938 14.871094 4.621094 15.125 4.875 C 15.378906 5.128906 15.539062 5.371094 15.667969 5.710938 C 15.769531 5.964844 15.886719 6.351562 15.921875 7.058594 C 15.953125 7.828125 15.960938 8.058594 15.960938 10 C 15.960938 11.9375 15.953125 12.167969 15.921875 12.9375 C 15.886719 13.644531 15.769531 14.03125 15.667969 14.285156 C 15.539062 14.625 15.378906 14.867188 15.125 15.121094 C 14.871094 15.375 14.628906 15.535156 14.289062 15.664062 C 14.035156 15.765625 13.648438 15.882812 12.9375 15.917969 C 12.171875 15.949219 11.941406 15.957031 10 15.957031 C 8.058594 15.957031 7.828125 15.949219 7.0625 15.917969 C 6.351562 15.882812 5.96875 15.765625 5.710938 15.664062 C 5.371094 15.535156 5.128906 15.375 4.875 15.121094 C 4.621094 14.867188 4.460938 14.625 4.332031 14.285156 C 4.230469 14.03125 4.113281 13.644531 4.082031 12.9375 C 4.046875 12.167969 4.039062 11.9375 4.039062 9.996094 C 4.039062 8.054688 4.046875 7.824219 4.082031 7.058594 C 4.113281 6.347656 4.230469 5.964844 4.332031 5.707031 C 4.460938 5.367188 4.621094 5.125 4.875 4.871094 C 5.128906 4.617188 5.371094 4.460938 5.710938 4.328125 C 5.96875 4.226562 6.351562 4.109375 7.0625 4.078125 C 7.734375 4.046875 7.992188 4.039062 9.347656 4.035156 Z M 13.882812 5.246094 C 13.402344 5.246094 13.011719 5.636719 13.011719 6.117188 C 13.011719 6.601562 13.402344 6.992188 13.882812 6.992188 C 14.363281 6.992188 14.753906 6.601562 14.753906 6.117188 C 14.753906 5.636719 14.363281 5.246094 13.882812 5.246094 Z M 10 6.265625 C 7.9375 6.265625 6.265625 7.9375 6.265625 10 C 6.265625 12.0625 7.9375 13.734375 10 13.734375 C 12.0625 13.734375 13.734375 12.0625 13.734375 10 C 13.734375 7.9375 12.0625 6.265625 10 6.265625 Z M 10 7.574219 C 11.339844 7.574219 12.425781 8.660156 12.425781 10 C 12.425781 11.339844 11.339844 12.425781 10 12.425781 C 8.660156 12.425781 7.578125 11.339844 7.578125 10 C 7.578125 8.660156 8.660156 7.574219 10 7.574219 Z M 10 7.574219 "/>
</g>
</svg>
