<?xml version="1.0" encoding="UTF-8"?>
<!--Generator: Apple Native CoreSVG 175.5-->
<!DOCTYPE svg
PUBLIC "-//W3C//DTD SVG 1.1//EN"
       "http://www.w3.org/Graphics/SVG/1.1/DTD/svg11.dtd">
<svg version="1.1" xmlns="http://www.w3.org/2000/svg" xmlns:xlink="http://www.w3.org/1999/xlink" width="39.8438" height="39.8633">
 <g>
  <rect height="39.8633" opacity="0" width="39.8438" x="0" y="0"/>
  <path d="M19.9219 39.8438C30.8203 39.8438 39.8438 30.8008 39.8438 19.9219C39.8438 9.02344 30.8008 0 19.9023 0C9.02344 0 0 9.02344 0 19.9219C0 30.8008 9.04297 39.8438 19.9219 39.8438ZM19.9219 36.5234C10.7031 36.5234 3.33984 29.1406 3.33984 19.9219C3.33984 10.7031 10.6836 3.32031 19.9023 3.32031C29.1211 3.32031 36.5234 10.7031 36.5234 19.9219C36.5234 29.1406 29.1406 36.5234 19.9219 36.5234Z" fill="#007aff"/>
  <path d="M10.957 28.3398C10.4492 29.6094 11.8359 30.7031 13.0469 29.4922L19.3945 23.125C19.707 22.832 20.0781 22.832 20.3906 23.125L26.7383 29.4922C27.9492 30.7031 29.3359 29.6094 28.8281 28.3398L21.2695 9.10156C20.7617 7.77344 19.0234 7.79297 18.4961 9.14062Z" fill="#007aff"/>
 </g>
</svg>
