<svg xmlns="http://www.w3.org/2000/svg" xmlns:xlink="http://www.w3.org/1999/xlink" width="100%" height="100%" version="1.1" id="Layer_1" x="0px" y="0px" viewBox="0 0 122.87999725341797 65.79000091552734" style="enable-background:new 0 0 122.88 65.79" xml:space="preserve"  preserveAspectRatio="xMinYMin meet"><rect id="svgEditorBackground" x="0" y="0" width="122.87999725341797" height="65.79000091552734" style="fill:none;stroke:none"/><style type="text/css">.st0{fill-rule:evenodd;clip-rule:evenodd;}</style><path class="st0" d="M13.37,31.32c-22.23,12.2,37.65,19.61,51.14,19.744v-7.694l11.21,11.2l-11.21,11.22v-6.97c-27.11,1.03,-90.92,-16.42,-52.54,-30.9c0.36,1.13,0.8,2.2,1.3,3.2l0.1,0.2l0,0ZM108.36,8.31c0,-2.61,0.47,-4.44,1.41,-5.48c0.94,-1.04,2.37,-1.56,4.3,-1.56c0.92,0,1.69,0.12,2.28,0.34c0.59,0.23,1.08,0.52,1.45,0.89c0.38,0.36,0.67,0.75,0.89,1.15c0.22,0.4,0.39,0.87,0.52,1.41c0.26,1.02,0.38,2.09,0.38,3.21c0,2.49,-0.42,4.32,-1.27,5.47c-0.84,1.15,-2.29,1.73,-4.36,1.73c-1.15,0,-2.09,-0.19,-2.8,-0.55c-0.71,-0.37,-1.3,-0.91,-1.75,-1.62c-0.33,-0.51,-0.59,-1.2,-0.77,-2.07c-0.19,-0.89,-0.28,-1.85,-0.28,-2.92l0,0ZM26.47,10.49l-9,-1.6c0.75,-2.86,2.18,-5.06,4.31,-6.59c2.12,-1.53,5.13,-2.3,9.02,-2.3c4.47,0,7.69,0.83,9.69,2.5c1.99,1.67,2.98,3.77,2.98,6.29c0,1.48,-0.41,2.82,-1.21,4.01c-0.81,1.2,-2.02,2.25,-3.65,3.15c1.32,0.33,2.34,0.71,3.03,1.15c1.14,0.7,2.02,1.63,2.65,2.77c0.63,1.15,0.95,2.51,0.95,4.1c0,2,-0.52,3.91,-1.56,5.75c-1.05,1.83,-2.55,3.24,-4.51,4.23c-1.96,0.99,-4.54,1.48,-7.74,1.48c-3.11,0,-5.57,-0.37,-7.36,-1.1c-1.8,-0.73,-3.28,-1.8,-4.44,-3.22c-1.16,-1.41,-2.05,-3.19,-2.67,-5.33l9.53,-1.27c0.38,1.92,0.95,3.26,1.74,4.01c0.78,0.74,1.78,1.12,3,1.12c1.27,0,2.33,-0.47,3.18,-1.4c0.85,-0.93,1.27,-2.18,1.27,-3.74c0,-1.59,-0.41,-2.82,-1.22,-3.69c-0.81,-0.87,-1.92,-1.31,-3.32,-1.31c-0.74,0,-1.77,0.18,-3.07,0.56l0.49,-6.81c0.52,0.08,0.93,0.12,1.22,0.12c1.23,0,2.26,-0.4,3.08,-1.19c0.82,-0.79,1.24,-1.72,1.24,-2.81c0,-1.05,-0.31,-1.88,-0.93,-2.49c-0.62,-0.62,-1.48,-0.93,-2.55,-0.93c-1.12,0,-2.02,0.34,-2.72,1.01c-0.71,0.66,-1.18,1.84,-1.43,3.53l0,0ZM75.15,8.27l-9.48,1.16c-0.25,-1.32,-0.66,-2.24,-1.24,-2.78c-0.59,-0.54,-1.31,-0.81,-2.16,-0.81c-1.54,0,-2.74,0.77,-3.59,2.33c-0.62,1.13,-1.09,3.52,-1.38,7.19c1.14,-1.16,2.31,-2.01,3.5,-2.56c1.2,-0.55,2.59,-0.83,4.16,-0.83c3.06,0,5.64,1.09,7.75,3.27c2.11,2.19,3.17,4.96,3.17,8.31c0,2.26,-0.53,4.32,-1.6,6.2c-1.07,1.87,-2.55,3.29,-4.44,4.25c-1.9,0.96,-4.27,1.44,-7.13,1.44c-3.43,0,-6.18,-0.58,-8.25,-1.76c-2.07,-1.17,-3.73,-3.03,-4.97,-5.59c-1.24,-2.56,-1.86,-5.95,-1.86,-10.18c0,-6.18,1.3,-10.71,3.91,-13.59c2.59,-2.88,6.2,-4.32,10.82,-4.32c2.73,0,4.88,0.31,6.46,0.94c1.58,0.63,2.9,1.56,3.94,2.76c1.05,1.22,1.85,2.74,2.39,4.57l0,0ZM57.62,23.55c0,1.86,0.47,3.31,1.527,4.36c1.067,1.177,1.953,1.58,3.313,1.58c1.25,0,2.3,-0.48,3.14,-1.43c0.84,-0.95,1.26,-2.37,1.26,-4.26c0,-1.93,-0.44,-3.41,-1.31,-4.42c-0.88,-1.01,-1.96,-1.52,-3.26,-1.52c-1.32,0,-2.44,0.49,-3.34,1.48c-0.89,0.98,-1.33,2.38,-1.33,4.21l0,0ZM77.91,17.57c0,-6.51,1.17,-11.07,3.52,-13.67c2.34,-2.6,5.92,-3.9,10.71,-3.9c2.31,0,4.2,0.29,5.68,0.85c1.48,0.57,2.69,1.31,3.62,2.22c0.94,0.91,1.68,1.87,2.21,2.87c0.54,1.01,0.97,2.18,1.3,3.52c0.64,2.55,0.96,5.22,0.96,8c0,6.22,-1.05,10.76,-3.16,13.64c-2.1,2.88,-5.72,4.32,-10.87,4.32c-2.88,0,-5.21,-0.46,-6.99,-1.38c-1.78,-0.92,-3.23,-2.27,-4.37,-4.05c-0.82,-1.26,-1.47,-2.98,-1.93,-5.17c-0.45,-2.18,-0.68,-4.6,-0.68,-7.25l0,0ZM87.34,17.59c0,4.36,0.38,7.34,1.16,8.94c0.77,1.6,1.89,2.39,3.36,2.39c0.97,0,1.8,-0.34,2.51,-1.01c0.71,-0.68,1.23,-1.76,1.56,-3.22c0.34,-1.47,0.5,-3.75,0.5,-6.85c0,-4.55,-0.38,-7.6,-1.16,-9.18c-0.77,-1.56,-1.93,-2.35,-3.47,-2.35c-1.58,0,-2.71,0.8,-3.42,2.39c-0.69,1.61,-1.04,4.57,-1.04,8.89l0,0ZM112.14,8.32c0,1.75,0.15,2.94,0.46,3.58c0.31,0.64,0.76,0.96,1.35,0.96c0.39,0,0.72,-0.13,1.01,-0.41c0.28,-0.27,0.49,-0.7,0.63,-1.29c0.13,-0.59,0.2,-1.5,0.2,-2.74c0,-1.82,-0.15,-3.05,-0.46,-3.68c-0.31,-0.63,-0.77,-0.94,-1.39,-0.94c-0.63,0,-1.09,0.32,-1.37,0.96c-0.29,0.64,-0.43,1.83,-0.43,3.56l0,0ZM109.3,30.23c10.56,5.37,8.04,12.99,-10.66,17.62c-5.3,1.31,-11.29,2.5,-17.86,2.99v6.05c7.31,-0.51,14.11,-2.19,20.06,-3.63c28.12,-6.81,27.14,-18.97,9.36,-25.83c-0.25,0.99,-0.55,1.92,-0.9,2.8l0,0Z" style="stroke:white;fill:white"/></svg>