<?xml version="1.0" encoding="UTF-8"?>
<!--Generator: Apple Native CoreSVG 175.5-->
<!DOCTYPE svg
PUBLIC "-//W3C//DTD SVG 1.1//EN"
       "http://www.w3.org/Graphics/SVG/1.1/DTD/svg11.dtd">
<svg version="1.1" xmlns="http://www.w3.org/2000/svg" xmlns:xlink="http://www.w3.org/1999/xlink" width="23.0273" height="17.9785">
 <g>
  <rect height="17.9785" opacity="0" width="23.0273" x="0" y="0"/>
  <path d="M4.98047 4.92188L13.2422 4.92188C13.5938 4.92188 13.8477 4.6582 13.8477 4.31641C13.8477 3.98438 13.5938 3.7207 13.2422 3.7207L4.98047 3.7207C4.62891 3.7207 4.375 3.98438 4.375 4.31641C4.375 4.6582 4.62891 4.92188 4.98047 4.92188ZM4.98047 14.248L13.2422 14.248C13.5938 14.248 13.8477 13.9941 13.8477 13.6621C13.8477 13.3203 13.5938 13.0469 13.2422 13.0469L4.98047 13.0469C4.62891 13.0469 4.375 13.3203 4.375 13.6621C4.375 13.9941 4.62891 14.248 4.98047 14.248ZM3.06641 17.9785L19.9609 17.9785C22.0117 17.9785 23.0273 16.9727 23.0273 14.9609L23.0273 3.02734C23.0273 1.01562 22.0117 0 19.9609 0L3.06641 0C1.02539 0 0 1.01562 0 3.02734L0 14.9609C0 16.9727 1.02539 17.9785 3.06641 17.9785ZM3.08594 16.4062C2.10938 16.4062 1.57227 15.8887 1.57227 14.873L1.57227 3.11523C1.57227 2.09961 2.10938 1.57227 3.08594 1.57227L19.9414 1.57227C20.9082 1.57227 21.4551 2.09961 21.4551 3.11523L21.4551 14.873C21.4551 15.8887 20.9082 16.4062 19.9414 16.4062Z" fill="#ffffff" fill-opacity="0.85"/>
  <path d="M4.11133 11.2891L18.9258 11.2891C19.7363 11.2891 20.2148 10.7812 20.2148 9.98047L20.2148 7.98828C20.2148 7.1875 19.7363 6.67969 18.9258 6.67969L4.11133 6.67969C3.30078 6.67969 2.82227 7.1875 2.82227 7.98828L2.82227 9.98047C2.82227 10.7812 3.30078 11.2891 4.11133 11.2891Z" fill="#ffffff" fill-opacity="0.85"/>
  <path d="M4.99023 9.58984C4.63867 9.58984 4.375 9.32617 4.375 8.98438C4.375 8.65234 4.63867 8.38867 4.99023 8.38867L9.79492 8.38867C10.1465 8.38867 10.4004 8.65234 10.4004 8.98438C10.4004 9.32617 10.1465 9.58984 9.79492 9.58984Z" fill="#1e1e1e"/>
 </g>
</svg>
